<svg xmlns="http://www.w3.org/2000/svg" viewBox="0 0 200 200" role="img" aria-label="Phyllotaxis">
  <title>Phyllotaxis</title>
  <circle cx="95.87" cy="103.78" r="3.39" fill="#111110"/>
  <circle cx="100.69" cy="92.11" r="3.34" fill="#111110"/>
  <circle cx="105.9" cy="107.7" r="3.3" fill="#111110"/>
  <circle cx="88.97" cy="98.05" r="3.27" fill="#111110"/>
  <circle cx="110.57" cy="93.28" r="3.25" fill="#111110"/>
  <circle cx="96.44" cy="113.25" r="3.22" fill="#111110"/>
  <circle cx="93.17" cy="86.85" r="3.2" fill="#111110"/>
  <circle cx="114.88" cy="105.43" r="3.18" fill="#111110"/>
  <circle cx="84.47" cy="106.41" r="3.16" fill="#111110"/>
  <circle cx="107.51" cy="83.96" r="3.14" fill="#111110"/>
  <circle cx="105.56" cy="117.72" r="3.12" fill="#111110"/>
  <circle cx="83.22" cy="90.27" r="3.11" fill="#111110"/>
  <circle cx="119.72" cy="95.66" r="3.09" fill="#111110"/>
  <circle cx="87.95" cy="117.14" r="3.08" fill="#111110"/>
  <circle cx="97.21" cy="78.49" r="3.06" fill="#111110"/>
  <circle cx="117.13" cy="114.44" r="3.05" fill="#111110"/>
  <circle cx="76.93" cy="100.95" r="3.03" fill="#111110"/>
  <circle cx="116.84" cy="83.24" r="3.02" fill="#111110"/>
  <circle cx="98.87" cy="124.38" r="3.01" fill="#111110"/>
  <circle cx="83.95" cy="80.77" r="2.99" fill="#111110"/>
  <circle cx="125.43" cy="103.42" r="2.98" fill="#111110"/>
  <circle cx="78.44" cy="115" r="2.97" fill="#111110"/>
  <circle cx="105.89" cy="73.8" r="2.96" fill="#111110"/>
  <circle cx="113.64" cy="123.8" r="2.94" fill="#111110"/>
  <circle cx="73.32" cy="91.49" r="2.93" fill="#111110"/>
  <circle cx="125.92" cy="88.02" r="2.92" fill="#111110"/>
  <circle cx="88.77" cy="126.84" r="2.91" fill="#111110"/>
  <circle cx="89.97" cy="72.12" r="2.9" fill="#111110"/>
  <circle cx="126.69" cy="114.03" r="2.89" fill="#111110"/>
  <circle cx="70.34" cy="107.82" r="2.88" fill="#111110"/>
  <circle cx="116.86" cy="73.77" r="2.87" fill="#111110"/>
  <circle cx="105.37" cy="131.22" r="2.86" fill="#111110"/>
  <circle cx="74.57" cy="80.3" r="2.85" fill="#111110"/>
  <circle cx="132.54" cy="97.3" r="2.84" fill="#111110"/>
  <circle cx="77.5" cy="124.32" r="2.83" fill="#111110"/>
  <circle cx="100.16" cy="66.4" r="2.82" fill="#111110"/>
  <circle cx="122.89" cy="125.23" r="2.81" fill="#111110"/>
  <circle cx="65.63" cy="96.81" r="2.8" fill="#111110"/>
  <circle cx="127.86" cy="78.86" r="2.79" fill="#111110"/>
  <circle cx="93.66" cy="134.85" r="2.78" fill="#111110"/>
  <circle cx="80.9" cy="69.65" r="2.77" fill="#111110"/>
  <circle cx="135" cy="109.59" r="2.77" fill="#111110"/>
  <circle cx="67.33" cy="116.77" r="2.76" fill="#111110"/>
  <circle cx="112.91" cy="65.17" r="2.75" fill="#111110"/>
  <circle cx="114.16" cy="134.79" r="2.74" fill="#111110"/>
  <circle cx="65.68" cy="83.73" r="2.73" fill="#111110"/>
  <circle cx="136.69" cy="88.69" r="2.72" fill="#111110"/>
  <circle cx="80.38" cy="133.47" r="2.71" fill="#111110"/>
  <circle cx="91.77" cy="61.67" r="2.71" fill="#111110"/>
  <circle cx="132.28" cy="122.93" r="2.7" fill="#111110"/>
  <circle cx="60.32" cy="104.95" r="2.69" fill="#111110"/>
  <circle cx="126.17" cy="69.25" r="2.68" fill="#111110"/>
  <circle cx="101.49" cy="140.74" r="2.67" fill="#111110"/>
  <circle cx="71.12" cy="70.69" r="2.67" fill="#111110"/>
  <circle cx="141.48" cy="102.12" r="2.66" fill="#111110"/>
  <circle cx="67.69" cy="126.69" r="2.65" fill="#111110"/>
  <circle cx="105.84" cy="58.13" r="2.64" fill="#111110"/>
  <circle cx="124.19" cy="135.13" r="2.64" fill="#111110"/>
  <circle cx="58.08" cy="90.35" r="2.63" fill="#111110"/>
  <circle cx="137.74" cy="78.62" r="2.62" fill="#111110"/>
  <circle cx="86.5" cy="141.6" r="2.61" fill="#111110"/>
  <circle cx="81.7" cy="59.88" r="2.61" fill="#111110"/>
  <circle cx="140.92" cy="117.36" r="2.6" fill="#111110"/>
  <circle cx="57.77" cy="114.96" r="2.59" fill="#111110"/>
  <circle cx="121.2" cy="60.14" r="2.59" fill="#111110"/>
  <circle cx="111.38" cy="144.05" r="2.58" fill="#111110"/>
  <circle cx="61.57" cy="75.02" r="2.57" fill="#111110"/>
  <circle cx="145.55" cy="92.4" r="2.57" fill="#111110"/>
  <circle cx="71.34" cy="136.64" r="2.56" fill="#111110"/>
  <circle cx="96.36" cy="53.29" r="2.55" fill="#111110"/>
  <circle cx="134.48" cy="132.21" r="2.55" fill="#111110"/>
  <circle cx="52.48" cy="99.54" r="2.54" fill="#111110"/>
  <circle cx="135.59" cy="68.03" r="2.53" fill="#111110"/>
  <circle cx="95.32" cy="147.95" r="2.53" fill="#111110"/>
  <circle cx="70.87" cy="61.23" r="2.52" fill="#111110"/>
  <circle cx="147.99" cy="108.97" r="2.51" fill="#111110"/>
  <circle cx="58.28" cy="125.97" r="2.51" fill="#111110"/>
  <circle cx="113.3" cy="52.37" r="2.5" fill="#111110"/>
  <circle cx="122.51" cy="144.39" r="2.49" fill="#111110"/>
  <circle cx="53.12" cy="82.36" r="2.49" fill="#111110"/>
  <circle cx="146.77" cy="81.22" r="2.48" fill="#111110"/>
  <circle cx="78.06" cy="145.72" r="2.47" fill="#111110"/>
  <circle cx="85.21" cy="51.17" r="2.47" fill="#111110"/>
  <circle cx="144.15" cy="126.17" r="2.46" fill="#111110"/>
  <circle cx="49.47" cy="110.59" r="2.46" fill="#111110"/>
  <circle cx="130.28" cy="57.81" r="2.45" fill="#111110"/>
  <circle cx="106.21" cy="151.86" r="2.44" fill="#111110"/>
  <circle cx="60.16" cy="65.76" r="2.44" fill="#111110"/>
  <circle cx="152.8" cy="98.33" r="2.43" fill="#111110"/>
  <circle cx="61.98" cy="137.11" r="2.42" fill="#111110"/>
  <circle cx="102.99" cy="46.66" r="2.42" fill="#111110"/>
  <circle cx="134.01" cy="141.57" r="2.41" fill="#111110"/>
  <circle cx="46.55" cy="92.28" r="2.41" fill="#111110"/>
  <circle cx="144.87" cy="69.43" r="2.4" fill="#111110"/>
  <circle cx="87.5" cy="153.13" r="2.4" fill="#111110"/>
  <circle cx="73.19" cy="52.13" r="2.39" fill="#111110"/>
  <circle cx="152.38" cy="117.27" r="2.38" fill="#111110"/>
  <circle cx="49.45" cy="122.76" r="2.38" fill="#111110"/>
  <circle cx="122.01" cy="48.81" r="2.37" fill="#111110"/>
  <circle cx="118.44" cy="152.88" r="2.37" fill="#111110"/>
  <circle cx="50.44" cy="73.33" r="2.36" fill="#111110"/>
  <circle cx="154.83" cy="86.12" r="2.36" fill="#111110"/>
  <circle cx="68.8" cy="147.5" r="2.35" fill="#111110"/>
  <circle cx="90.88" cy="43.62" r="2.34" fill="#111110"/>
  <circle cx="145.02" cy="135.58" r="2.34" fill="#111110"/>
  <circle cx="42.5" cy="104.2" r="2.33" fill="#111110"/>
  <circle cx="139.75" cy="57.86" r="2.33" fill="#111110"/>
  <circle cx="99.15" cy="158.19" r="2.32" fill="#111110"/>
  <circle cx="61.14" cy="56.32" r="2.32" fill="#111110"/>
  <circle cx="158.43" cy="105.99" r="2.31" fill="#111110"/>
  <circle cx="52.66" cy="135.21" r="2.31" fill="#111110"/>
  <circle cx="111.18" cy="41.8" r="2.3" fill="#111110"/>
  <circle cx="131.21" cy="150.69" r="2.3" fill="#111110"/>
  <circle cx="42.49" cy="83.63" r="2.29" fill="#111110"/>
  <circle cx="153.69" cy="73.1" r="2.28" fill="#111110"/>
  <circle cx="78.48" cy="156.35" r="2.28" fill="#111110"/>
  <circle cx="77.71" cy="43.68" r="2.27" fill="#111110"/>
  <circle cx="154.71" cy="126.59" r="2.27" fill="#111110"/>
  <circle cx="41.45" cy="117.43" r="2.26" fill="#111110"/>
  <circle cx="131.53" cy="47.38" r="2.26" fill="#111110"/>
  <circle cx="112.34" cy="160.35" r="2.25" fill="#111110"/>
  <circle cx="49.93" cy="63.69" r="2.25" fill="#111110"/>
  <circle cx="161.7" cy="92.92" r="2.24" fill="#111110"/>
  <circle cx="59.12" cy="147.09" r="2.24" fill="#111110"/>
  <circle cx="98.33" cy="37.41" r="2.23" fill="#111110"/>
  <circle cx="143.68" cy="145.2" r="2.23" fill="#111110"/>
  <circle cx="37.01" cy="96.16" r="2.22" fill="#111110"/>
  <circle cx="149.23" cy="60.12" r="2.22" fill="#111110"/>
  <circle cx="90.6" cy="162.9" r="2.21" fill="#111110"/>
  <circle cx="64.3" cy="47.06" r="2.21" fill="#111110"/>
  <circle cx="162.32" cy="114.98" r="2.2" fill="#111110"/>
  <circle cx="43.71" cy="131.17" r="2.2" fill="#111110"/>
  <circle cx="120.53" cy="38.77" r="2.19" fill="#111110"/>
  <circle cx="126.32" cy="159.24" r="2.19" fill="#111110"/>
  <circle cx="40.35" cy="74" r="2.18" fill="#111110"/>
  <circle cx="161.77" cy="78.8" r="2.18" fill="#111110"/>
  <circle cx="68.66" cy="157.57" r="2.17" fill="#111110"/>
  <circle cx="84.16" cy="36.15" r="2.17" fill="#111110"/>
  <circle cx="155.01" cy="136.52" r="2.16" fill="#111110"/>
  <circle cx="34.54" cy="110.27" r="2.16" fill="#111110"/>
  <circle cx="141.48" cy="48.03" r="2.15" fill="#111110"/>
  <circle cx="104.54" cy="166.58" r="2.15" fill="#111110"/>
  <circle cx="51.51" cy="53.81" r="2.14" fill="#111110"/>
  <circle cx="167.19" cy="101.31" r="2.14" fill="#111110"/>
  <circle cx="49.4" cy="144.57" r="2.14" fill="#111110"/>
  <circle cx="107.23" cy="32.72" r="2.13" fill="#111110"/>
  <circle cx="140.25" cy="154.68" r="2.13" fill="#111110"/>
  <circle cx="33.16" cy="86.83" r="2.12" fill="#111110"/>
  <circle cx="158.38" cy="64.44" r="2.12" fill="#111110"/>
  <circle cx="80.91" cy="165.87" r="2.11" fill="#111110"/>
  <circle cx="69.48" cy="38.32" r="2.11" fill="#111110"/>
  <circle cx="164.38" cy="124.94" r="2.1" fill="#111110"/>
  <circle cx="35.47" cy="125.18" r="2.1" fill="#111110"/>
  <circle cx="130.68" cy="37.64" r="2.09" fill="#111110"/>
  <circle cx="119.56" cy="166.92" r="2.09" fill="#111110"/>
  <circle cx="40.18" cy="63.76" r="2.08" fill="#111110"/>
  <circle cx="168.81" cy="86.27" r="2.08" fill="#111110"/>
  <circle cx="58.4" cy="156.78" r="2.08" fill="#111110"/>
  <circle cx="92.29" cy="29.81" r="2.07" fill="#111110"/>
  <circle cx="153.26" cy="146.7" r="2.07" fill="#111110"/>
  <circle cx="28.96" cy="101.55" r="2.06" fill="#111110"/>
  <circle cx="151.49" cy="50.72" r="2.06" fill="#111110"/>
  <circle cx="95.3" cy="171.34" r="2.05" fill="#111110"/>
  <circle cx="55.13" cy="44.05" r="2.05" fill="#111110"/>
  <circle cx="171.09" cy="110.98" r="2.04" fill="#111110"/>
  <circle cx="39.98" cy="140.04" r="2.04" fill="#111110"/>
  <circle cx="117.26" cy="29.72" r="2.04" fill="#111110"/>
  <circle cx="134.85" cy="163.67" r="2.03" fill="#111110"/>
  <circle cx="31.09" cy="76.52" r="2.03" fill="#111110"/>
  <circle cx="166.87" cy="70.67" r="2.02" fill="#111110"/>
  <circle cx="70.42" cy="166.99" r="2.02" fill="#111110"/>
  <circle cx="76.5" cy="30.42" r="2.01" fill="#111110"/>
  <circle cx="164.52" cy="135.53" r="2.01" fill="#111110"/>
  <circle cx="28.22" cy="117.43" r="2.01" fill="#111110"/>
  <circle cx="141.27" cy="38.48" r="2" fill="#111110"/>
  <circle cx="111.15" cy="173.45" r="2" fill="#111110"/>
  <circle cx="42" cy="53.24" r="1.99" fill="#111110"/>
  <circle cx="174.56" cy="95.29" r="1.99" fill="#111110"/>
  <circle cx="48.06" cy="154" r="1.98" fill="#111110"/>
  <circle cx="101.83" cy="24.89" r="1.98" fill="#111110"/>
  <circle cx="149.52" cy="156.78" r="1.98" fill="#111110"/>
  <circle cx="24.92" cy="91.56" r="1.97" fill="#111110"/>
  <circle cx="161.23" cy="55.39" r="1.97" fill="#111110"/>
  <circle cx="84.95" cy="174.46" r="1.96" fill="#111110"/>
  <circle cx="60.7" cy="34.75" r="1.96" fill="#111110"/>
  <circle cx="173.25" cy="121.62" r="1.95" fill="#111110"/>
  <circle cx="31.2" cy="133.63" r="1.95" fill="#111110"/>
  <circle cx="128.09" cy="28.54" r="1.95" fill="#111110"/>
  <circle cx="127.63" cy="171.86" r="1.94" fill="#111110"/>
  <circle cx="30.9" cy="65.59" r="1.94" fill="#111110"/>
  <circle cx="174.39" cy="78.65" r="1.93" fill="#111110"/>
  <circle cx="59.47" cy="166.17" r="1.93" fill="#111110"/>
  <circle cx="85.15" cy="23.63" r="1.93" fill="#111110"/>
  <circle cx="162.69" cy="146.4" r="1.92" fill="#111110"/>
  <circle cx="22.23" cy="108.16" r="1.92" fill="#111110"/>
  <circle cx="151.97" cy="41.3" r="1.91" fill="#111110"/>
  <circle cx="101.33" cy="178.59" r="1.91" fill="#111110"/>
  <circle cx="45.8" cy="42.81" r="1.91" fill="#111110"/>
  <circle cx="178.8" cy="105.57" r="1.9" fill="#111110"/>
  <circle cx="37.98" cy="149.24" r="1.9" fill="#111110"/>
  <circle cx="112.5" cy="21.6" r="1.89" fill="#111110"/>
  <circle cx="143.85" cy="166.42" r="1.89" fill="#111110"/>
  <circle cx="22.61" cy="80.59" r="1.89" fill="#111110"/>
  <circle cx="170.35" cy="61.94" r="1.88" fill="#111110"/>
  <circle cx="73.77" cy="175.77" r="1.88" fill="#111110"/>
  <circle cx="68.08" cy="26.24" r="1.87" fill="#111110"/>
  <circle cx="173.54" cy="132.91" r="1.87" fill="#111110"/>
  <circle cx="23.36" cy="125.47" r="1.87" fill="#111110"/>
  <circle cx="139.4" cy="29.28" r="1.86" fill="#111110"/>
  <circle cx="118.76" cy="178.95" r="1.86" fill="#111110"/>
  <circle cx="32.67" cy="54.35" r="1.85" fill="#111110"/>
  <circle cx="180.67" cy="88.15" r="1.85" fill="#111110"/>
  <circle cx="48.4" cy="163.38" r="1.85" fill="#111110"/>
  <circle cx="95.23" cy="18.22" r="1.84" fill="#111110"/>
  <circle cx="158.9" cy="157.21" r="1.84" fill="#111110"/>
  <circle cx="17.73" cy="97.59" r="1.83" fill="#111110"/>
  <circle cx="162.43" cy="46.08" r="1.83" fill="#111110"/>
  <circle cx="90.36" cy="182.12" r="1.83" fill="#111110"/>
  <circle cx="51.52" cy="32.78" r="1.82" fill="#111110"/>
  <circle cx="181.33" cy="116.86" r="1.82" fill="#111110"/>
  <circle cx="28.48" cy="142.61" r="1.82" fill="#111110"/>
  <circle cx="124.01" cy="20.09" r="1.81" fill="#111110"/>
  <circle cx="136.36" cy="175.31" r="1.81" fill="#111110"/>
  <circle cx="22.15" cy="68.96" r="1.8" fill="#111110"/>
  <circle cx="178.55" cy="70.24" r="1.8" fill="#111110"/>
</svg>
